<svg width="400" height="426" viewBox="0 0 400 426" fill="none"
  xmlns="http://www.w3.org/2000/svg">
  <rect width="400" height="426" fill="#FF3E3E"/>
  <path d="M171.875 207.75C171.387 207.75 170.863 207.75 170.24 207.682C169.618 207.615 168.95 207.75 168.433 207.75H115.317C114.8 207.75 114.237 207.75 113.562 207.682C112.888 207.615 112.362 207.75 111.875 207.75C105.81 207.744 99.9951 205.332 95.7065 201.043C91.4179 196.755 89.006 190.94 89 184.875V124.875C89 118.808 91.41 112.99 95.6999 108.7C99.9898 104.41 105.808 102 111.875 102C117.942 102 123.76 104.41 128.05 108.7C132.34 112.99 134.75 118.808 134.75 124.875V132.375C134.75 134.265 135.501 136.077 136.837 137.413C138.173 138.749 139.985 139.5 141.875 139.5C143.765 139.5 145.577 138.749 146.913 137.413C148.249 136.077 149 134.265 149 132.375V124.875C149 118.808 151.41 112.99 155.7 108.7C159.99 104.41 165.808 102 171.875 102C177.942 102 183.76 104.41 188.05 108.7C192.34 112.99 194.75 118.808 194.75 124.875V184.875C194.744 190.94 192.332 196.755 188.043 201.043C183.755 205.332 177.94 207.744 171.875 207.75Z" fill="#FDF8ED"/>
  <path d="M228.875 207.75C222.81 207.744 216.995 205.332 212.707 201.043C208.418 196.755 206.006 190.94 206 184.875C206 184.38 206 183.863 206.067 183.24C206.135 182.618 206 181.957 206 181.432V128.318C206 127.793 206 127.23 206.067 126.562C206.135 125.895 206 125.37 206 124.875C206.006 118.81 208.418 112.995 212.707 108.707C216.995 104.418 222.81 102.006 228.875 102H288.875C294.942 102 300.76 104.41 305.05 108.7C309.34 112.99 311.75 118.808 311.75 124.875C311.75 130.942 309.34 136.76 305.05 141.05C300.76 145.34 294.942 147.75 288.875 147.75H281.375C279.485 147.75 277.673 148.501 276.337 149.837C275.001 151.173 274.25 152.985 274.25 154.875C274.25 156.765 275.001 158.577 276.337 159.913C277.673 161.249 279.485 162 281.375 162H288.875C294.942 162 300.76 164.41 305.05 168.7C309.34 172.99 311.75 178.808 311.75 184.875C311.75 190.942 309.34 196.76 305.05 201.05C300.76 205.34 294.942 207.75 288.875 207.75H228.875Z" fill="#FDF8ED"/>
  <path d="M172.625 324C166.56 323.994 160.745 321.582 156.457 317.293C152.168 313.005 149.756 307.19 149.75 301.125V293.625C149.75 291.735 148.999 289.923 147.663 288.587C146.327 287.251 144.515 286.5 142.625 286.5C140.735 286.5 138.923 287.251 137.587 288.587C136.251 289.923 135.5 291.735 135.5 293.625V301.125C135.5 307.192 133.09 313.01 128.8 317.3C124.51 321.59 118.692 324 112.625 324C106.558 324 100.74 321.59 96.4499 317.3C92.16 313.01 89.75 307.192 89.75 301.125V241.125C89.756 235.06 92.1679 229.245 96.4565 224.957C100.745 220.668 106.56 218.256 112.625 218.25C113.112 218.25 113.637 218.25 114.26 218.318C114.882 218.385 115.55 218.25 116.075 218.25H169.183C169.7 218.25 170.262 218.25 170.938 218.318C171.613 218.385 172.137 218.25 172.625 218.25C178.69 218.256 184.505 220.668 188.793 224.957C193.082 229.245 195.494 235.06 195.5 241.125V301.125C195.494 307.19 193.082 313.005 188.793 317.293C184.505 321.582 178.69 323.994 172.625 324Z" fill="#FDF8ED"/>
  <path d="M235.25 322.5C227.492 322.5 220.053 319.418 214.567 313.933C209.082 308.447 206 301.008 206 293.25C206 285.492 209.082 278.053 214.567 272.567C220.053 267.082 227.492 264 235.25 264H236.375C237.451 264.001 238.515 263.782 239.502 263.355C240.49 262.929 241.379 262.304 242.116 261.521C242.852 260.737 243.421 259.811 243.785 258.799C244.15 257.787 244.303 256.711 244.235 255.637C244.069 253.601 243.134 251.703 241.62 250.331C240.106 248.959 238.126 248.215 236.082 248.25H221.75C217.573 248.25 213.567 246.591 210.613 243.637C207.659 240.683 206 236.677 206 232.5C206 228.323 207.659 224.317 210.613 221.363C213.567 218.409 217.573 216.75 221.75 216.75H281.75C289.706 216.75 297.337 219.911 302.963 225.537C308.589 231.163 311.75 238.794 311.75 246.75C311.75 254.706 308.589 262.337 302.963 267.963C297.337 273.589 289.706 276.75 281.75 276.75H281.668C279.624 276.715 277.644 277.459 276.13 278.831C274.616 280.203 273.681 282.101 273.515 284.137C273.447 285.211 273.6 286.287 273.965 287.299C274.329 288.311 274.898 289.237 275.634 290.021C276.371 290.804 277.26 291.429 278.248 291.855C279.235 292.282 280.299 292.501 281.375 292.5H296.75C300.728 292.5 304.544 294.08 307.357 296.893C310.17 299.706 311.75 303.522 311.75 307.5C311.75 311.478 310.17 315.294 307.357 318.107C304.544 320.92 300.728 322.5 296.75 322.5H235.25Z" fill="#FDF8ED"/>
</svg>
